<svg xmlns="http://www.w3.org/2000/svg" xmlns:xlink="http://www.w3.org/1999/xlink" version="1.1" width="317.251" height="317.25" style="enable-background:new 0 0 317.251 317.25;" xml:space="preserve"><rect id="backgroundrect" width="100%" height="100%" x="0" y="0" fill="none" stroke="none"/>
















<g class="currentLayer" style=""><title>Layer 1</title><g id="svg_1" class="selected" fill="#ffffff" fill-opacity="1">
	<g id="svg_2" fill="#ffffff" fill-opacity="1">
		<path d="M36.45,317.25h157.929l86.422-86.432v-3.354V0H36.45V317.25z M199.801,288.921v-53.356h53.346L199.801,288.921z     M52.65,16.2h211.95v203.165h-81v81.686H52.65V16.2z" id="svg_3" fill="#ffffff" fill-opacity="1"/>
		<path d="M223.088,192.987c1.419,2.848,4.282,4.493,7.262,4.493c1.218,0,2.441-0.27,3.602-0.844    c4.008-1.988,5.638-6.855,3.644-10.863l-71.71-144.184c-0.035-0.059-0.077-0.108-0.108-0.172c-0.14-0.271-0.309-0.514-0.475-0.757    c-0.138-0.2-0.267-0.411-0.422-0.599c-0.158-0.189-0.335-0.358-0.509-0.529c-0.206-0.211-0.403-0.422-0.636-0.612    c-0.158-0.124-0.324-0.231-0.493-0.345c-0.274-0.192-0.557-0.382-0.862-0.543c-0.056-0.028-0.092-0.065-0.147-0.092    c-0.129-0.066-0.264-0.093-0.393-0.153c-0.309-0.134-0.612-0.258-0.923-0.351c-0.222-0.063-0.443-0.108-0.67-0.155    c-0.288-0.061-0.572-0.113-0.859-0.14c-0.243-0.024-0.485-0.029-0.728-0.029c-0.277,0-0.556,0-0.833,0.029    c-0.253,0.026-0.506,0.073-0.762,0.124c-0.253,0.047-0.506,0.103-0.754,0.176c-0.288,0.087-0.567,0.201-0.849,0.325    c-0.145,0.065-0.303,0.097-0.448,0.168c-0.058,0.026-0.103,0.069-0.161,0.103c-0.277,0.145-0.53,0.316-0.783,0.49    c-0.195,0.129-0.396,0.253-0.572,0.406c-0.2,0.161-0.375,0.351-0.557,0.527c-0.2,0.2-0.406,0.39-0.585,0.611    c-0.135,0.166-0.248,0.351-0.372,0.527c-0.182,0.267-0.361,0.53-0.512,0.817c-0.034,0.058-0.071,0.101-0.103,0.161L79.656,185.773    c-1.991,4.002-0.361,8.87,3.646,10.863c1.16,0.574,2.386,0.844,3.602,0.844c2.974,0,5.843-1.646,7.256-4.493l14.86-29.869h99.207    L223.088,192.987z M117.079,146.91l41.547-83.531l41.549,83.531H117.079z" id="svg_4" fill="#ffffff" fill-opacity="1"/>
	</g>
</g><g id="svg_5">
</g><g id="svg_6">
</g><g id="svg_7">
</g><g id="svg_8">
</g><g id="svg_9">
</g><g id="svg_10">
</g><g id="svg_11">
</g><g id="svg_12">
</g><g id="svg_13">
</g><g id="svg_14">
</g><g id="svg_15">
</g><g id="svg_16">
</g><g id="svg_17">
</g><g id="svg_18">
</g><g id="svg_19">
</g></g></svg>