<svg xmlns="http://www.w3.org/2000/svg" xmlns:xlink="http://www.w3.org/1999/xlink" version="1.1" style=";" xml:space="preserve" width="512" height="512"><rect id="backgroundrect" width="100%" height="100%" x="0" y="0" fill="none" stroke="none"/>
















<g class="currentLayer" style=""><title>Layer 1</title><g id="svg_1" class="selected" fill="#ffffff" fill-opacity="1">
	<g id="svg_2" fill="#ffffff" fill-opacity="1">
		<g id="svg_3" fill="#ffffff" fill-opacity="1">
			<path d="M469.333,43.567900900363924 H192 v-32 C192,5.671900900363922 187.229,0.9009009003639221 181.333,0.9009009003639221 h-64 c-5.896,0 -10.667,4.771 -10.667,10.667 v32 h-64 C19.135,43.567900900363924 0,62.70290090036392 0,86.23390090036392 V384.9009009003639 c0,23.531 19.135,42.667 42.667,42.667 h149.362 c-0.46,17.052 -3.728,44.306 -15.893,57.104 c-4.469,4.708 -9.604,6.896 -16.135,6.896 c-5.896,0 -10.667,4.771 -10.667,10.667 c0,5.896 4.771,10.667 10.667,10.667 h192 c5.896,0 10.667,-4.771 10.667,-10.667 c0,-5.896 -4.771,-10.667 -10.667,-10.667 c-6.531,0 -11.667,-2.188 -16.135,-6.896 c-12.165,-12.798 -15.434,-40.052 -15.893,-57.104 h149.362 C492.865,427.5679009003639 512,408.4319009003639 512,384.9009009003639 V86.23390090036392 C512,62.70290090036392 492.865,43.567900900363924 469.333,43.567900900363924 zM117.333,128.90090090036392 c5.896,0 10.667,-4.771 10.667,-10.667 v-96 h42.667 v96 c0,5.896 4.771,10.667 10.667,10.667 H192 l-42.667,56.885 L106.667,128.90090090036392 H117.333 zM197.729,491.5679009003639 c12.881,-19.749 15.374,-48.188 15.695,-64 h85.151 c0.32200000000000006,15.813 2.814,44.251 15.695,64 H197.729 zM490.667,384.9009009003639 c0,11.76 -9.573,21.333 -21.333,21.333 H42.667 c-11.76,0 -21.333,-9.573 -21.333,-21.333 v-42.667 h469.333 V384.9009009003639 zM490.667,320.9009009003639 H21.333 V86.23390090036392 C21.333,74.47390090036392 30.906,64.90090090036392 42.667,64.90090090036392 h64 v42.667 H85.333 c-4.042,0 -7.729,2.281 -9.542,5.896 c-1.802,3.615 -1.417,7.938 1.01,11.167 l64,85.333 c2.01,2.688 5.177,4.271 8.531,4.271 c3.354,0 6.521,-1.5830000000000002 8.531,-4.271 l64,-85.333 c2.427,-3.229 2.813,-7.552 1.01,-11.167 c-1.8130000000000002,-3.615 -5.5,-5.896 -9.542,-5.896 H192 V64.90090090036392 h277.333 c11.76,0 21.333,9.573 21.333,21.333 V320.9009009003639 z" id="svg_4" fill="#ffffff" fill-opacity="1"/>
			<circle cx="256" cy="374.2339087128639" r="21.33300018310547" id="svg_5" fill="#ffffff" fill-opacity="1"/>
			<path d="M439.917,167.61990090036392 l-10.104,-2.531 l5.354,-8.948 c2.521,-4.188 1.854,-9.563 -1.604,-13.021 l-21.115,-21.115 c-3.458,-3.469 -8.833,-4.115 -13.021,-1.604 l-8.948,5.354 l-2.531,-10.104 c-1.177,-4.75 -5.448,-8.083 -10.344,-8.083 h-29.875 c-4.896,0 -9.167,3.333 -10.344,8.083 l-2.531,10.104 l-8.948,-5.354 c-4.177,-2.5 -9.552,-1.854 -13.021,1.604 l-21.115,21.115 c-3.458,3.458 -4.125,8.833 -1.604,13.021 l5.354,8.948 l-10.104,2.531 c-4.75,1.177 -8.083,5.448 -8.083,10.344 v29.875 c0,4.896 3.333,9.167 8.083,10.344 l10.104,2.531 l-5.354,8.948 c-2.521,4.188 -1.854,9.563 1.604,13.021 l21.115,21.115 c3.458,3.448 8.823,4.115 13.021,1.604 l8.948,-5.354 l2.531,10.104 c1.177,4.75 5.448,8.083 10.344,8.083 h29.875 c4.896,0 9.167,-3.333 10.344,-8.083 l2.531,-10.104 l8.948,5.354 c4.177,2.5 9.573,1.854 13.021,-1.604 l21.115,-21.115 c3.458,-3.458 4.125,-8.833 1.604,-13.021 l-5.354,-8.948 l10.104,-2.531 c4.75,-1.177 8.083,-5.448 8.083,-10.344 v-29.875 C448,173.06790090036392 444.667,168.7969009003639 439.917,167.61990090036392 zM426.667,199.50490090036394 l-10.396,2.604 c-3.5,0.8650000000000001 -6.323,3.448 -7.5,6.854 c-0.6150000000000001,1.802 -1.302,3.531 -2.115,5.219 c-1.573,3.24 -1.4060000000000001,7.052 0.44800000000000006,10.135 l5.49,9.167 l-9.344,9.344 l-9.167,-5.49 c-3.094,-1.875 -6.906,-2.031 -10.135,-0.44800000000000006 c-1.6880000000000002,0.8130000000000001 -3.417,1.5 -5.219,2.115 c-3.406,1.177 -5.99,4 -6.854,7.5 L369.271,256.9009009003639 h-13.208 l-2.604,-10.396 c-0.8650000000000001,-3.5 -3.448,-6.323 -6.854,-7.5 c-1.802,-0.6150000000000001 -3.531,-1.302 -5.219,-2.115 c-3.25,-1.573 -7.063,-1.4060000000000001 -10.135,0.44800000000000006 l-9.167,5.49 l-9.344,-9.344 l5.49,-9.167 c1.854,-3.083 2.021,-6.896 0.44800000000000006,-10.135 c-0.8130000000000001,-1.6880000000000002 -1.5,-3.417 -2.115,-5.219 c-1.177,-3.406 -4,-5.99 -7.5,-6.854 l-10.396,-2.604 v-13.208 l10.396,-2.604 c3.5,-0.8650000000000001 6.323,-3.448 7.5,-6.854 c0.6150000000000001,-1.802 1.302,-3.531 2.115,-5.219 c1.573,-3.24 1.4060000000000001,-7.052 -0.44800000000000006,-10.135 l-5.49,-9.167 l9.344,-9.344 l9.167,5.49 c3.073,1.854 6.875,2.021 10.135,0.44800000000000006 c1.6880000000000002,-0.8130000000000001 3.417,-1.5 5.219,-2.115 c3.406,-1.177 5.99,-4 6.854,-7.5 L356.063,128.90090090036392 h13.208 l2.604,10.396 c0.8650000000000001,3.5 3.448,6.323 6.854,7.5 c1.802,0.6150000000000001 3.531,1.302 5.219,2.115 c3.24,1.5830000000000002 7.063,1.4060000000000001 10.135,-0.44800000000000006 l9.167,-5.49 l9.344,9.344 l-5.49,9.167 c-1.854,3.083 -2.021,6.896 -0.44800000000000006,10.135 c0.8130000000000001,1.6880000000000002 1.5,3.417 2.115,5.219 c1.177,3.406 4,5.99 7.5,6.854 l10.396,2.604 V199.50490090036394 z" id="svg_6" fill="#ffffff" fill-opacity="1"/>
			<path d="M362.667,160.90090090036392 c-17.646,0 -32,14.354 -32,32 s14.354,32 32,32 s32,-14.354 32,-32 S380.313,160.90090090036392 362.667,160.90090090036392 zM362.667,203.56790090036392 c-5.885,0 -10.667,-4.781 -10.667,-10.667 s4.781,-10.667 10.667,-10.667 s10.667,4.781 10.667,10.667 S368.552,203.56790090036392 362.667,203.56790090036392 z" id="svg_7" fill="#ffffff" fill-opacity="1"/>
			<path d="M224,235.56790090036392 H74.667 c-5.896,0 -10.667,4.771 -10.667,10.667 C64,252.12990090036394 68.771,256.9009009003639 74.667,256.9009009003639 H224 c5.896,0 10.667,-4.771 10.667,-10.667 C234.667,240.3389009003639 229.896,235.56790090036392 224,235.56790090036392 z" id="svg_8" fill="#ffffff" fill-opacity="1"/>
			<path d="M160,278.23390090036395 H74.667 C68.771,278.23390090036395 64,283.0049009003639 64,288.9009009003639 s4.771,10.667 10.667,10.667 H160 c5.896,0 10.667,-4.771 10.667,-10.667 S165.896,278.23390090036395 160,278.23390090036395 z" id="svg_9" fill="#ffffff" fill-opacity="1"/>
		</g>
	</g>
</g><g id="svg_10">
</g><g id="svg_11">
</g><g id="svg_12">
</g><g id="svg_13">
</g><g id="svg_14">
</g><g id="svg_15">
</g><g id="svg_16">
</g><g id="svg_17">
</g><g id="svg_18">
</g><g id="svg_19">
</g><g id="svg_20">
</g><g id="svg_21">
</g><g id="svg_22">
</g><g id="svg_23">
</g><g id="svg_24">
</g></g></svg>