<svg xmlns="http://www.w3.org/2000/svg" width="512" height="512"><rect id="backgroundrect" width="100%" height="100%" x="0" y="0" fill="none" stroke="none"/><g class="currentLayer" style=""><title>Layer 1</title><path d="M349.657,18.343A8,8,0,0,0,344,16H120A56.064,56.064,0,0,0,64,72V440a56.064,56.064,0,0,0,56,56H392a56.064,56.064,0,0,0,56-56V120a8,8,0,0,0-2.343-5.657ZM352,43.313,420.687,112H392a40.045,40.045,0,0,1-40-40ZM120,32H336V72a56.064,56.064,0,0,0,56,56h40V352H80V72A40.045,40.045,0,0,1,120,32ZM392,480H120a40.045,40.045,0,0,1-40-40V368H432v72A40.045,40.045,0,0,1,392,480Z" id="svg_1" class="" fill="#ffffff" fill-opacity="1"/><path d="M256,400h16a8,8,0,0,0,0-16H256a24,24,0,0,0,0,48,8,8,0,0,1,0,16H240a8,8,0,0,0,0,16h16a24,24,0,0,0,0-48,8,8,0,0,1,0-16Z" id="svg_2" class="" fill="#ffffff" fill-opacity="1"/><path d="M192,384H176a8,8,0,0,0-8,8v64a8,8,0,0,0,16,0V432h8a24,24,0,0,0,0-48Zm0,32h-8V400h8a8,8,0,0,1,0,16Z" id="svg_3" class="selected" fill="#ffffff" fill-opacity="1"/><path d="M304,383.0990990996361 a8,8 0 0 0 -8,8 v64 a8,8 0 0 0 8,8 a40,40 0 0 0 0,-80 zm8,62.629 V400.47009909963606 a24,24 0 0 1 0,45.258 z" id="svg_4" class="" fill="#ffffff" fill-opacity="1"/><path d="M374.656,179.562l-32-48A8,8,0,0,0,336,128H176a8,8,0,0,0-6.656,3.562l-32,48a8,8,0,0,0,1,10.095l112,112a8,8,0,0,0,11.314,0l112-112A8,8,0,0,0,374.656,179.562ZM353.052,176H308.944l-16-32h38.775ZM202.725,192l29.558,68.97L163.314,192Zm89.142,0L256,275.691,220.133,192Zm-70.923-16,16-32h38.112l16,32Zm88.331,16h39.411l-68.969,68.97ZM180.281,144h38.775l-16,32H158.948Z" id="svg_5" class="" fill="#ffffff" fill-opacity="1"/></g></svg>