<svg xmlns="http://www.w3.org/2000/svg" xmlns:xlink="http://www.w3.org/1999/xlink" version="1.1" width="396.494" height="396.494" style="enable-background:new 0 0 396.494 396.494;" xml:space="preserve"><rect id="backgroundrect" width="100%" height="100%" x="0" y="0" fill="none" stroke="none"/>
















<g class="currentLayer" style=""><title>Layer 1</title><g id="svg_1" class="selected" fill="#ffffff" fill-opacity="1">
	<path d="M303.5190990996361,330.0000990996361 h-43.219 c-1.56,0 -2.834,-1.2730000000000001 -2.834,-2.834 v-10.52 c0,-1.5590000000000002 -1.275,-2.834 -2.834,-2.834 h-60.475 c-1.56,0 -2.835,1.275 -2.835,2.834 v10.52 c0,1.561 -1.275,2.834 -2.835,2.834 h-32.491 c-1.56,0 -2.835,1.275 -2.835,2.834 v12.17 c0,1.5590000000000002 1.275,2.834 2.835,2.834 h147.521 c1.5590000000000002,0 2.834,-1.275 2.834,-2.834 v-12.17 C306.3530990996361,331.27809909963605 305.07809909963606,330.0000990996361 303.5190990996361,330.0000990996361 z" id="svg_2" fill="#ffffff" fill-opacity="1"/>
	<g id="svg_3" fill="#ffffff" fill-opacity="1">
		<path d="M376.13109909963606,45.46709909963608 h-308.4 c-10.73,0 -19.459,8.73 -19.459,19.462 c0,0 0,37.109 0,50.761 c0,6.711 -0.49800000000000005,7.66 4.004,7.66 c2.391,0 5.039,0 7.72,0 c3.778,0 3.003,-0.9490000000000001 3.003,-7.785 c0,-13.621 0,-50.636 0,-50.636 c0,-2.565 2.168,-4.7330000000000005 4.732,-4.7330000000000005 h308.4 c2.563,0 4.731,2.168 4.731,4.7330000000000005 v189.999 h-219.87 c0,0 -7.7490000000000006,-0.014000000000000002 -7.7490000000000006,10.006 c0,5.941 0,17.823 0,23.766000000000002 c0,10.006 8,10.006 8,10.006 h214.888 c10.729,0 19.461,-8.729 19.461,-19.459 V64.92909909963608 C395.5920990996361,54.198099099636075 386.86209909963605,45.46709909963608 376.13109909963606,45.46709909963608 zM221.93209909963608,281.90309909963605 c-4.845,0 -8.771,-3.926 -8.771,-8.768 s3.926,-8.77 8.771,-8.77 c4.84,0 8.767,3.928 8.767,8.77 S226.77209909963608,281.90309909963605 221.93209909963608,281.90309909963605 z" id="svg_4" fill="#ffffff" fill-opacity="1"/>
		<path d="M123.22409909963608,140.7320990996361 H11.658099099636077 C4.7310990996360776,140.7320990996361 -0.9009009003639221,146.36509909963607 -0.9009009003639221,153.2920990996361 v183.372 c0,6.926 5.632,12.561 12.559,12.561 h111.566 c6.923,0 12.559,-5.635 12.559,-12.561 V153.2920990996361 C135.78309909963608,146.36509909963607 130.14709909963608,140.7320990996361 123.22409909963608,140.7320990996361 zM53.679099099636076,153.5420990996361 h27.523 c1.3130000000000002,0 2.38,1.064 2.38,2.3810000000000002 c0,1.314 -1.066,2.379 -2.38,2.379 H53.679099099636076 c-1.315,0 -2.379,-1.065 -2.379,-2.379 C51.30009909963608,154.60609909963608 52.36409909963608,153.5420990996361 53.679099099636076,153.5420990996361 zM67.27409909963608,340.40309909963605 c-3.59,0 -6.5,-2.91 -6.5,-6.5 s2.91,-6.5 6.5,-6.5 s6.5,2.91 6.5,6.5 S70.86409909963608,340.40309909963605 67.27409909963608,340.40309909963605 zM124.99209909963608,321.29909909963607 c0,1.6760000000000002 -1.342,3.047 -2.98,3.047 H12.873099099636079 c-1.6390000000000002,0 -2.98,-1.371 -2.98,-3.047 V168.92409909963607 c0,-1.6760000000000002 1.342,-3.046 2.98,-3.046 h109.139 c1.6390000000000002,0 2.98,1.371 2.98,3.046 V321.29909909963607 z" id="svg_5" fill="#ffffff" fill-opacity="1"/>
	</g>
</g><g id="svg_6">
</g><g id="svg_7">
</g><g id="svg_8">
</g><g id="svg_9">
</g><g id="svg_10">
</g><g id="svg_11">
</g><g id="svg_12">
</g><g id="svg_13">
</g><g id="svg_14">
</g><g id="svg_15">
</g><g id="svg_16">
</g><g id="svg_17">
</g><g id="svg_18">
</g><g id="svg_19">
</g><g id="svg_20">
</g></g></svg>