<svg xmlns="http://www.w3.org/2000/svg" height="480" width="480.08177"><rect id="backgroundrect" width="100%" height="100%" x="0" y="0" fill="none" stroke="none"/><g class="currentLayer" style=""><title>Layer 1</title><path d="m479.199219,114.70168190036392 c-1.6523440000000003,-6.144531 -5.683594,-11.382812 -11.199219,-14.558593 c-5.519531,-3.191407 -12.082031,-4.054688 -18.238281,-2.4023440000000003 c-6.148438,1.65625 -11.386719,5.683594 -14.5625,11.199218 l-4,6.9609380000000005 c-3.800781,-2.1835940000000003 -8.65625,-0.8984380000000001 -10.878907,2.882812 l-20.320312,34.636719 l-6.9609380000000005,-4 c-1.84375,-1.066406 -4.039062,-1.355469 -6.09375,-0.8007810000000001 c-2.058593,0.558594 -3.808593,1.910156 -4.867187,3.7617190000000003 c-2.1679690000000003,3.8242190000000003 -0.8476560000000001,8.683593 2.960937,10.878906 l6.9609380000000005,4 l-68,117.839844 l-16.800781,44.882812 l-8,14.957031 c-4.683594,8.148438 -4.183594,18.277344 1.28125,25.921876 l-18,22.078124 l-5.039063,-12.636718 c-2.273437,-5.6328130000000005 -7.535156,-9.492188 -13.585937,-9.964844 c-6.054688,-0.47656200000000004 -11.855469,2.515625 -14.976563,7.722656 l-2.878906,4.878906 l-2.71875,-32 c-0.6250000000000001,-7.5703119999999995 -6.488281,-13.65625 -14.027344,-14.570312 c-7.542968,-0.910156 -14.683594,3.609375 -17.09375,10.8125 l-19.679687,59.039062 c-1.375,4.175782 0.8750000000000001,8.675782 5.039062,10.082032 c0.78125,0.363281 1.6210940000000003,0.5820310000000001 2.4804690000000003,0.6367180000000001 c3.4375,0.011719000000000004 6.5,-2.179687 7.6015619999999995,-5.4375 l19.597657,-59.039062 l2.800781,32.476562 c0.5781250000000001,6.9296880000000005 5.558594,12.691407 12.332031,14.261719 c6.773438,1.570313 13.78125,-1.414062 17.347657,-7.378906 l2.960937,-4.8828130000000005 l4.960937,12.5625 c2.105469,5.292969 6.8671880000000005,9.070313 12.503907,9.910157 c5.636719,0.8398430000000001 11.292969,-1.382813 14.855469,-5.832031 l18.640624,-23.597657 c2.0625,0.539063 4.1875,0.808594 6.3203130000000005,0.8007810000000001 c8.574219,0.06640700000000001 16.535156,-4.449218 20.878906,-11.84375 l8,-13.359374 l30.480469,-37.039063 l68.71875,-119.28125 l6.9609380000000005,4 c1.8554680000000001,1.0625 3.207031,2.8164059999999997 3.757812,4.8828130000000005 c0.5546880000000001,2.050781 0.265625,4.238281 -0.7968750000000001,6.078124 l-32,55.441407 c-1.207031,1.820312 -1.617187,4.054687 -1.132813,6.1875 c0.4843760000000001,2.128906 1.8164069999999999,3.96875 3.691407,5.089843 c1.84375,1.070313 4.039062,1.3593760000000001 6.09375,0.8046880000000001 c2.058593,-0.558594 3.808593,-1.910156 4.867187,-3.7617190000000003 l32,-55.441406 c3.191406,-5.519531 4.054688,-12.082031 2.398438,-18.238281 c-1.65625,-6.148438 -5.683594,-11.386719 -11.199219,-14.5625 l-6.960937,-4 l20,-34.640625 c2.183593,-3.800781 0.898437,-8.652344 -2.878907,-10.878907 l4,-6.960937 c3.2773440000000003,-5.605469 4.144531,-12.300781 2.398438,-18.558594 zm-30.160157,2.238281 c1.058594,-1.851562 2.816407,-3.207031 4.8828130000000005,-3.757812 c2.054687,-0.5078119999999999 4.226563,-0.22265600000000002 6.078125,0.8007810000000001 c1.855469,1.058594 3.207031,2.816407 3.7617190000000003,4.878907 c0.5078119999999999,2.054687 0.22265600000000002,4.226562 -0.8007810000000001,6.078124 l-4,6.9609380000000005 l-13.921876,-8 zm-109.039062,223.363282 l-4,-2.320313 l-11.839844,-6.882812 l11.359375,-30.398438 l25.199219,14.558594 zm-24,23.117187 c-3.378906,-2.3554690000000003 -4.417969,-6.886719 -2.398438,-10.480469 l4,-6.957031 l13.917969,8 l-4,6.878907 c-1.1210930000000001,1.945312 -3.003906,3.328124 -5.195312,3.8164059999999997 c-2.191407,0.48437500000000006 -4.484375,0.03125000000000001 -6.324219,-1.257813 zm53.839844,-61.277343 l-27.679688,-16 l64,-110.882813 l27.679688,16 zm72,-124.722657 l-27.679688,-16 l16,-27.679687 l27.679688,16 zm0,0 " id="svg_1" class="" fill="#ffffff" fill-opacity="1"/><path d="m126.238281 358.519531-28.316406 28.242188-16.960937-16.960938c-3.121094-3.101562-8.160157-3.101562-11.28125 0-1.515626 1.503907-2.367188 3.546875-2.367188 5.679688 0 2.132812.851562 4.179687 2.367188 5.679687l16.960937 16.960938c3 2.976562 7.054687 4.644531 11.28125 4.640625 4.25.023437 8.339844-1.644531 11.359375-4.640625l28.238281-28.320313c2.71875-3.175781 2.535157-7.90625-.417969-10.859375-2.957031-2.957031-7.6875-3.140625-10.863281-.421875zm0 0" id="svg_2" class="" fill="#ffffff" fill-opacity="1"/><path d="m30.198198199272156,380.039062 c0,37.558594 30.445312,68 68,68 s68,-30.441406 68,-68 c0,-4.417968 -3.582031,-8 -8,-8 s-8,3.582032 -8,8 c0,28.71875 -23.28125,52 -52,52 s-52,-23.28125 -52,-52 s23.28125,-52 52,-52 c11.257812,-0.03125000000000001 22.214844,3.6210940000000003 31.199219,10.402344 c3.5351559999999997,2.6523440000000003 8.550781,1.933594 11.199219,-1.601562 c2.652343,-3.5351559999999997 1.9375,-8.546875 -1.597657,-11.199219 c-20.605469,-15.453125 -48.175781,-17.9375 -71.210937,-6.421875 c-23.039063,11.519531 -37.589844,35.066406 -37.589844,60.820312 zm0,0 " id="svg_3" class="" fill="#ffffff" fill-opacity="1"/><path d="m288 64.039062c4.417969 0 8-3.578124 8-8 0-4.417968-3.582031-8-8-8h-208c-4.417969 0-8 3.582032-8 8v32c0 4.421876 3.582031 8 8 8h208c4.417969 0 8-3.578124 8-8 0-4.417968-3.582031-8-8-8h-200v-16zm0 0" id="svg_4" class="" fill="#ffffff" fill-opacity="1"/><path d="m103.09909909963608,112.039062 c-4.417969,0 -8,3.582032 -8,8 c0,4.421876 3.582031,8 8,8 h160 c4.417969,0 8,-3.578124 8,-8 c0,-4.417968 -3.582031,-8 -8,-8 zm0,0 " id="svg_5" class="selected" fill="#ffffff" fill-opacity="1"/><path d="m312 168.039062h-176c-4.417969 0-8 3.582032-8 8 0 4.421876 3.582031 8 8 8h176c4.417969 0 8-3.578124 8-8 0-4.417968-3.582031-8-8-8zm0 0" id="svg_6" class="" fill="#ffffff" fill-opacity="1"/><path d="m232 224.039062c0-4.417968-3.582031-8-8-8h-160c-4.417969 0-8 3.582032-8 8 0 4.421876 3.582031 8 8 8h160c4.417969 0 8-3.578124 8-8zm0 0" id="svg_7" class="" fill="#ffffff" fill-opacity="1"/><path d="m312 216.039062h-56c-4.417969 0-8 3.582032-8 8 0 4.421876 3.582031 8 8 8h56c4.417969 0 8-3.578124 8-8 0-4.417968-3.582031-8-8-8zm0 0" id="svg_8" class="" fill="#ffffff" fill-opacity="1"/><path d="m144 272.039062c4.417969 0 8-3.578124 8-8 0-4.417968-3.582031-8-8-8h-80c-4.417969 0-8 3.582032-8 8 0 4.421876 3.582031 8 8 8zm0 0" id="svg_9" class="" fill="#ffffff" fill-opacity="1"/><path d="m176 272.039062h56c4.417969 0 8-3.578124 8-8 0-4.417968-3.582031-8-8-8h-56c-4.417969 0-8 3.582032-8 8 0 4.421876 3.582031 8 8 8zm0 0" id="svg_10" class="" fill="#ffffff" fill-opacity="1"/><path d="m360 368.039062c-4.417969 0-8 3.582032-8 8v80c0 4.421876-3.582031 8-8 8h-320c-4.417969 0-8-3.578124-8-8v-432c0-4.417968 3.582031-8 8-8h320c4.417969 0 8 3.582032 8 8v150.242188c0 4.417969 3.582031 8 8 8s8-3.582031 8-8v-150.242188c0-13.253906-10.746094-23.9999995-24-23.9999995h-320c-13.253906 0-24 10.7460935-24 23.9999995v432c0 13.257813 10.746094 24 24 24h320c13.253906 0 24-10.742187 24-24v-80c0-4.417968-3.582031-8-8-8zm0 0" id="svg_11" class="" fill="#ffffff" fill-opacity="1"/></g></svg>